# xmcd
#
# Track frame offsets: 
#        150
#        15225
#        33937
#        45525
#        72600
#        89287
#        113345
#        125795
#        147245
#        174733
#        189358
#        207433
#        223783
#        240246
#        257159
#
# Disc length: 3605 seconds
#
# Revision: 0
# Processed by: cddbd v1.5.2PL0 Copyright (c) Steve Scherf et al.
# Submitted via: ExactAudioCopy v1.0b3
#
DISCID=d10e130f
DTITLE=Jeremy Spencer - Coventry Blue
DYEAR=2014
DGENRE=Country
TTITLE0=Happy Troubadour
TTITLE1=Got to Keep Movin'
TTITLE2=Dearest... umm, yah
TTITLE3=Send an Angel
TTITLE4=Sounds Like Paris
TTITLE5=Blind Lover
TTITLE6=Open the Door
TTITLE7=Sweet Were the Days
TTITLE8=Letting go of the Past
TTITLE9=Coventry Blue
TTITLE10=Nightingale's Pledge
TTITLE11=Durango
TTITLE12=Moonshine Slide
TTITLE13=The World in her Heart
TTITLE14=Endlessly
EXTD=
EXTT0=
EXTT1=
EXTT2=
EXTT3=
EXTT4=
EXTT5=
EXTT6=
EXTT7=
EXTT8=
EXTT9=
EXTT10=
EXTT11=
EXTT12=
EXTT13=
EXTT14=
PLAYORDER=
